<svg xmlns="http://www.w3.org/2000/svg" xmlns:xlink="http://www.w3.org/1999/xlink" viewBox="0 0 873.266 836.214">
    <defs>
        <linearGradient id="linear-gradient" x2="1" y1=".5" y2=".5" gradientUnits="objectBoundingBox">
            <stop offset="0" stop-color="#8bc691"/>
            <stop offset=".112" stop-color="#7ac19c"/>
            <stop offset=".509" stop-color="#46b0c0"/>
            <stop offset=".806" stop-color="#25a6d7"/>
            <stop offset=".97" stop-color="#19a3e0"/>
        </linearGradient>
        <linearGradient id="linear-gradient-4" x1="1.028" x2=".049" y1="1.112" y2="-.024" gradientUnits="objectBoundingBox">
            <stop offset=".001" stop-color="#09a0df"/>
            <stop offset="1" stop-color="#92d8f7"/>
        </linearGradient>
        <linearGradient id="linear-gradient-5" x2="1" y1=".5" y2=".5" gradientUnits="objectBoundingBox">
            <stop offset=".017" stop-color="#793f90"/>
            <stop offset="1" stop-color="#fffdfe"/>
        </linearGradient>
        <linearGradient id="linear-gradient-6" x1=".976" x2="-.15" y1="1.04" y2="-.238" xlink:href="#linear-gradient"/>
        <linearGradient id="linear-gradient-7" x1="1.247" x2=".193" y1="1.375" y2="-.082" xlink:href="#linear-gradient"/>
        <linearGradient id="linear-gradient-8" x1="1.117" x2=".413" y1="1.377" y2=".377" xlink:href="#linear-gradient-4"/>
        <linearGradient id="linear-gradient-9" x2="1" y1=".5" y2=".5" gradientUnits="objectBoundingBox">
            <stop offset=".03" stop-color="#19a3e0"/>
            <stop offset=".194" stop-color="#25a6d7"/>
            <stop offset=".491" stop-color="#46b0c0"/>
            <stop offset=".888" stop-color="#7ac19c"/>
            <stop offset="1" stop-color="#8bc691"/>
        </linearGradient>
        <linearGradient id="linear-gradient-10" x1=".852" x2=".225" y1="1.091" y2="-.421" xlink:href="#linear-gradient"/>
        <linearGradient id="linear-gradient-11" x1=".5" x2=".5" y1=".942" y2="-.086" gradientUnits="objectBoundingBox">
            <stop offset="0" stop-color="#19a3e0"/>
            <stop offset=".008" stop-color="#1da4e0" stop-opacity=".98"/>
            <stop offset=".112" stop-color="#51b9e7" stop-opacity=".753"/>
            <stop offset=".221" stop-color="#7fcced" stop-opacity=".553"/>
            <stop offset=".332" stop-color="#a7dbf3" stop-opacity=".38"/>
            <stop offset=".448" stop-color="#c7e8f7" stop-opacity=".243"/>
            <stop offset=".568" stop-color="#dff2fa" stop-opacity=".137"/>
            <stop offset=".694" stop-color="#f1f9fd" stop-opacity=".059"/>
            <stop offset=".831" stop-color="#fbfdfe" stop-opacity=".016"/>
            <stop offset="1" stop-color="#fff" stop-opacity="0"/>
        </linearGradient>
        <linearGradient id="linear-gradient-20" x1=".5" x2=".5" y1=".924" y2="-.021" gradientUnits="objectBoundingBox">
            <stop offset="0" stop-color="#19a3e0"/>
            <stop offset=".019" stop-color="#20a6e1" stop-opacity=".965"/>
            <stop offset="1" stop-color="#fff" stop-opacity="0"/>
        </linearGradient>
        <linearGradient id="linear-gradient-21" x1=".978" x2=".188" y1=".5" y2=".5" gradientUnits="objectBoundingBox">
            <stop offset="0" stop-color="#a0d8f1"/>
            <stop offset="1" stop-color="#d2f4ff"/>
        </linearGradient>
        <linearGradient id="linear-gradient-22" x1=".748" x2=".185" y1=".702" y2=".168" gradientUnits="objectBoundingBox">
            <stop offset=".001" stop-color="#808285"/>
            <stop offset="1" stop-color="#414042"/>
        </linearGradient>
        <linearGradient id="linear-gradient-23" x1=".14" x2=".705" y1=".925" y2="-.015" gradientUnits="objectBoundingBox">
            <stop offset=".001" stop-color="#3ab2e6"/>
            <stop offset="1" stop-color="#a4e9ff"/>
        </linearGradient>
        <style>
            .cls-4{fill:#1e1548;opacity:.64;mix-blend-mode:multiply}.cls-11,.cls-17,.cls-4{isolation:isolate}.cls-11,.cls-17{mix-blend-mode:overlay}.cls-8{fill:#19a3e0}.cls-10{fill:url(#linear-gradient-8)}.cls-12,.cls-16{fill:#fff}.cls-13{fill:url(#linear-gradient-9)}.cls-14{fill:url(#linear-gradient-10)}.cls-16{fill-rule:evenodd}.cls-17{fill:url(#linear-gradient-11)}.cls-18{fill:#f0b90b}
        </style>
    </defs>
    <g id="banner" transform="translate(-560.087 -1369.714)">
        <g id="bg" fill="url(#linear-gradient)" transform="translate(560.087 1649.51)">
            <path id="Path_2621" d="M1347.782 2009.048l-312.017-180.142c-27.335-15.781-71.667-15.786-98.828 0l-310 180.154c-13.4 7.79-20.772 18.234-20.755 29.41.015 11.252 7.5 21.765 21.077 29.6l312.016 180.142c13.666 7.894 31.581 11.841 49.478 11.837s35.773-3.945 49.352-11.837l149.23-86.721.7.407.71-1.23 159.358-92.607c13.4-7.79 20.774-18.234 20.756-29.413-.015-11.248-7.501-21.762-21.077-29.6zm-311.224 236.507c-26.311 15.294-69.264 15.291-95.75 0l-312.016-180.143c-12.587-7.267-19.526-16.836-19.54-26.944-.015-10.036 6.813-19.535 19.226-26.748l150.2-87.287-.371.642 405.955 234.644zm310-180.152l-159.236 92.537L781 1923.083l157.48-91.517c13.156-7.645 30.467-11.468 47.806-11.468s34.7 3.823 47.941 11.468l312.017 180.142c12.585 7.267 19.528 16.838 19.54 26.948.016 10.033-6.813 19.534-19.224 26.744z" opacity="0.3" transform="translate(-550.886 -1784.953)"/>
            <path id="Path_2622" d="M1338.909 2047.444L1083.8 1900.159c-22.349-12.9-58.595-12.906-80.8 0l-253.46 147.3c-10.957 6.369-16.984 14.908-16.97 24.046.013 9.2 6.133 17.795 17.233 24.2l255.1 147.285c11.174 6.454 25.821 9.681 40.453 9.678s29.249-3.226 40.351-9.678l122.011-70.9.576.333.58-1.005 130.292-75.716c10.958-6.369 16.985-14.908 16.97-24.048-.007-9.207-6.127-17.802-17.227-24.21zm-254.458 193.368c-21.511 12.5-56.63 12.5-78.285 0l-255.1-147.285c-10.291-5.941-15.965-13.766-15.976-22.03-.012-8.2 5.571-15.97 15.719-21.868l122.8-71.366-.3.525 331.909 191.845zm253.458-147.292l-130.191 75.659-332.21-192.019 128.755-74.825c10.756-6.25 24.91-9.376 39.087-9.376s28.369 3.126 39.2 9.376l255.105 147.285c10.29 5.942 15.966 13.766 15.976 22.032.009 8.202-5.574 15.971-15.722 21.868z" opacity="0.5" transform="translate(-607.724 -1817.966)"/>
            <path id="Path_2661" d="M1455.31 2036.884l-357.258-206.261c-31.3-18.069-82.058-18.075-113.157 0L629.943 2036.9c-15.345 8.919-23.784 20.878-23.765 33.675.017 12.883 8.589 24.92 24.133 33.9l357.256 206.262c15.648 9.039 36.16 13.558 56.652 13.554s40.96-4.517 56.508-13.554l170.867-99.3.806.466.813-1.408 182.464-106.034c15.345-8.92 23.786-20.878 23.766-33.678-.017-12.883-8.588-24.925-24.133-33.899zm-356.35 270.8c-30.126 17.511-79.307 17.508-109.633 0L632.071 2101.42c-14.412-8.32-22.357-19.278-22.373-30.851-.017-11.491 7.8-22.367 22.014-30.625L803.689 1940l-.425.735 464.817 268.665zm354.951-206.273l-182.324 105.955-465.237-268.91 180.313-104.787c15.063-8.754 34.885-13.131 54.737-13.131s39.729 4.377 54.892 13.131l357.258 206.261c14.41 8.321 22.359 19.279 22.373 30.855.017 11.488-7.802 22.366-22.012 30.625z" opacity="0.1" transform="translate(-606.178 -1817.068)"/>
        </g>
        <g id="icon" transform="translate(698.051 1369.714)">
            <path id="Path_2623" d="M1481.945 1924.076c61.442 35.473 61.766 92.973.74 128.438-61.042 35.473-160.311 35.473-221.752 0s-61.765-92.974-.723-128.447c61.025-35.467 160.29-35.467 221.735.009z" class="cls-4" transform="translate(-911.065 -1542.562)"/>
            <path id="Path_2624" fill="url(#linear-gradient-4)" d="M1481.945 1772.31c61.442 35.473 61.766 92.973.74 128.437-61.042 35.474-160.311 35.474-221.752 0s-61.765-92.974-.723-128.448c61.025-35.462 160.29-35.462 221.735.011z" transform="translate(-911.065 -1501.063)"/>
            <path id="Path_2625" d="M1482.7 1929.807c-61.042 35.474-160.311 35.474-221.752 0-29.918-17.273-45.3-39.769-46.208-62.4-.954 24.035 14.431 48.273 46.208 66.62 61.441 35.474 160.71 35.473 221.752 0 31.307-18.194 46.425-42.187 45.47-66.031-.888 22.433-16.007 44.691-45.47 61.811z" transform="translate(-911.082 -1534.341)" style="mix-blend-mode:overlay;isolation:isolate" fill="url(#linear-gradient-5)"/>
            <path id="Path_2626" fill="url(#linear-gradient-6)" d="M1467.71 1799.513c44.456 25.666 44.69 67.271.535 92.93s-115.992 25.667-160.447 0-44.69-67.271-.523-92.938 115.98-25.658 160.435.008z" transform="translate(-927.379 -1510.512)"/>
            <path id="Path_2627" d="M1307.287 1809.471c44.154-25.66 115.98-25.66 160.435.006 20.132 11.624 31.163 26.516 33.141 41.716 2.422-18.509-8.614-37.52-33.141-51.681-44.455-25.666-116.281-25.666-160.435-.007-24.168 14.044-35.008 32.859-32.617 51.224 1.968-15.039 12.815-29.75 32.617-41.258z" class="cls-8" transform="translate(-927.391 -1510.512)"/>
            <path id="Path_2632" fill="url(#linear-gradient-7)" d="M1528.119 1871.025l-.294 104.794c2.6 24.949-12.461 50.375-45.25 69.443-61.042 35.464-160.32 35.464-221.755 0-30.913-17.851-46.356-41.273-46.286-64.669h-.322l.308-110.311c0 23.353 15.442 46.72 46.3 64.529 61.435 35.478 160.713 35.478 221.755 0 30.325-17.625 45.488-40.685 45.544-63.786z" transform="translate(-910.948 -1535.128)"/>
            <path id="Path_2633" d="M1528.11 1957.544c-1.182 22.178-16.345 44.12-45.435 61.07-61.043 35.449-160.322 35.449-221.76 0-30.93-17.843-46.354-41.283-46.3-64.67h-.078l.078-21.484c0 23.361 15.425 46.722 46.3 64.539 61.438 35.475 160.716 35.475 221.76 0 28.249-16.424 43.333-37.551 45.3-59.021l-.052 11.183c.105.92.157 1.839.21 2.759a44.558 44.558 0 0 1-.023 5.624z" class="cls-8" transform="translate(-911.036 -1552.13)"/>
            <g id="Group_57" transform="translate(0 235.921)">
                <path id="Path_2634" d="M1015.453 2009.141l-108.9 63.286-109.613-63.285 108.9-63.286z" class="cls-4" transform="translate(-796.848 -1791.713)"/>
                <path id="Path_2635" d="M1015.453 1927.635l-108.9 63.286-109.613-63.284 108.9-63.286z" class="cls-10" transform="translate(-796.848 -1769.427)"/>
                <g id="Group_54" class="cls-11" transform="translate(.09 156.395)">
                    <path id="Path_2636" d="M1015.455 1950.769l-108.908 63.29-109.609-63.29 3.119-1.813 106.49 61.477 105.789-61.477z" class="cls-12" transform="translate(-796.938 -1948.957)"/>
                </g>
                <g id="Group_55" transform="translate(39.166 117.558)">
                    <path id="Path_2637" d="M991.084 1936.154l-69.953 40.652-70.411-40.652 69.953-40.652z" class="cls-13" transform="translate(-850.72 -1895.502)"/>
                </g>
                <path id="Path_2638" d="M906.518 2014.739l-109.613-63.285-.091 59.741 109.613 63.285 108.9-63.286.091-59.741z" class="cls-14" transform="translate(-796.814 -1793.244)"/>
                <path id="Path_2639" d="M1015.328 1984.836l-108.9 63.286-109.591-63.273-.022 10.173 109.613 63.285 108.9-63.286z" class="cls-8" transform="translate(-796.814 -1802.372)"/>
                <g id="Group_56" transform="translate(39.166 117.558)">
                    <path id="Path_2640" d="M850.72 1936.155l9.3 5.371 60.65-35.245V1895.5z" class="cls-8" transform="translate(-850.72 -1895.502)"/>
                    <path id="Path_2641" d="M947 1895.5v10.778l61.107 35.28 9.3-5.407z" class="cls-8" transform="translate(-877.047 -1895.502)"/>
                </g>
                <g id="USDT" transform="translate(45.976 9.647)">
                    <circle id="Ellipse_5" cx="63.316" cy="63.316" r="63.316" fill="#50af95"/>
                    <path id="Path_372" d="M46.664 55.281c-.407.031-2.512.159-7.206.159-3.734 0-6.384-.112-7.315-.159-14.425-.634-25.2-3.147-25.2-6.154s10.771-5.516 25.2-6.161v9.814c.944.068 3.646.227 7.38.227 4.481 0 6.724-.187 7.128-.224v-9.809c14.4.641 25.145 3.153 25.145 6.154s-10.743 5.512-25.146 6.15zm0-13.323v-8.781h20.095V19.786H12.047v13.391h20.092v8.778c-16.328.75-28.613 3.985-28.613 7.861s12.281 7.108 28.613 7.862v28.138h14.522V57.668c16.293-.75 28.554-3.981 28.554-7.855s-12.251-7.1-28.554-7.858zm0 0z" class="cls-16" transform="translate(23.945 10.513)"/>
                </g>
                <path id="Path_2642" d="M853.834 1733.7v160.054l70.411 40.651 69.953-40.652V1733.7z" class="cls-17" transform="translate(-812.406 -1733.702)"/>
            </g>
            <g id="Group_61" transform="translate(14.554 470.942)">
                <path id="Path_2643" d="M1035.485 2332.613l-108.9 63.286-109.613-63.285 108.9-63.286z" class="cls-4" transform="translate(-816.88 -2115.185)"/>
                <path id="Path_2644" d="M1035.485 2251.107l-108.9 63.286-109.613-63.285 108.9-63.286z" class="cls-10" transform="translate(-816.88 -2092.898)"/>
                <g id="Group_58" class="cls-11" transform="translate(.09 156.395)">
                    <path id="Path_2645" d="M1035.487 2274.241l-108.908 63.29-109.609-63.29 3.119-1.812 106.49 61.477 105.789-61.477z" class="cls-12" transform="translate(-816.97 -2272.428)"/>
                </g>
                <g id="Group_59" transform="translate(39.166 117.558)">
                    <path id="Path_2646" d="M1011.116 2259.626l-69.953 40.652-70.411-40.652 69.953-40.652z" class="cls-13" transform="translate(-870.752 -2218.974)"/>
                </g>
                <path id="Path_2647" d="M926.55 2338.211l-109.613-63.285-.091 59.741 109.613 63.284 108.9-63.286.091-59.741z" class="cls-14" transform="translate(-816.846 -2116.716)"/>
                <path id="Path_2648" d="M1035.359 2308.308l-108.9 63.286-109.591-63.273-.022 10.173 109.613 63.285 108.9-63.286z" class="cls-8" transform="translate(-816.846 -2125.844)"/>
                <g id="Group_60" transform="translate(39.166 117.558)">
                    <path id="Path_2649" d="M870.752 2259.626l9.3 5.372 60.65-35.246v-10.778z" class="cls-8" transform="translate(-870.752 -2218.974)"/>
                    <path id="Path_2650" d="M967.032 2218.974v10.778l61.107 35.281 9.3-5.407z" class="cls-8" transform="translate(-897.079 -2218.974)"/>
                </g>
                <g id="BNB" transform="translate(68.548 73.287)">
                    <circle id="Ellipse_28" cx="40.434" cy="40.434" r="40.434" class="cls-18"/>
                    <path id="Path_359" d="M28.269 37.253l-6.186 6.229-6.23-6.229 6.23-6.229zm15.079-15.078L54 32.828l6.231-6.228-10.653-10.613-6.23-6.229-6.229 6.229L26.508 26.6l6.229 6.229zm21.266 8.85l-6.186 6.228 6.229 6.229 6.186-6.229zM43.348 52.333L32.694 41.679l-6.186 6.229 10.654 10.654 6.186 6.186 6.229-6.229 10.655-10.654L54 41.678zm0-8.85l6.229-6.23-6.229-6.229-6.229 6.229z" class="cls-12" transform="translate(-2.915 3.181)"/>
                </g>
                <path id="Path_2651" d="M873.866 2057.174v160.053l70.411 40.651 69.953-40.652v-160.052z" class="cls-17" transform="translate(-832.438 -2057.174)"/>
            </g>
            <g id="Group_65" transform="translate(363.837 456.298)">
                <path id="Path_2652" d="M1516.221 2312.458l-108.9 63.285-109.613-63.284 108.9-63.286z" class="cls-4" transform="translate(-1297.616 -2095.03)"/>
                <path id="Path_2653" d="M1516.221 2230.952l-108.9 63.286-109.613-63.285 108.9-63.286z" class="cls-10" transform="translate(-1297.616 -2072.743)"/>
                <g id="Group_62" class="cls-11" transform="translate(.09 156.395)">
                    <path id="Path_2654" d="M1516.223 2254.086l-108.908 63.29-109.609-63.29 3.119-1.813 106.49 61.477 105.789-61.477z" class="cls-12" transform="translate(-1297.706 -2252.273)"/>
                </g>
                <g id="Group_63" transform="translate(39.166 117.558)">
                    <path id="Path_2655" d="M1491.852 2239.471l-69.953 40.652-70.411-40.652 69.953-40.652z" class="cls-13" transform="translate(-1351.488 -2198.819)"/>
                </g>
                <path id="Path_2656" d="M1407.286 2318.056l-109.613-63.285-.091 59.741L1407.2 2377.8l108.9-63.286.091-59.741z" class="cls-14" transform="translate(-1297.582 -2096.56)"/>
                <path id="Path_2657" d="M1516.1 2288.153l-108.9 63.286-109.6-63.273-.022 10.173 109.613 63.285 108.9-63.286z" class="cls-8" transform="translate(-1297.582 -2105.689)"/>
                <g id="Group_64" transform="translate(39.166 117.558)">
                    <path id="Path_2658" d="M1351.488 2239.471l9.3 5.371 60.65-35.246v-10.778z" class="cls-8" transform="translate(-1351.488 -2198.819)"/>
                    <path id="Path_2659" d="M1447.768 2198.819v10.781l61.107 35.281 9.3-5.407z" class="cls-8" transform="translate(-1377.815 -2198.819)"/>
                </g>
                <g id="busd-icon" transform="translate(59.323 41.63)">
                    <circle id="Ellipse_5-2" cx="53.367" cy="53.367" r="53.367" class="cls-18"/>
                    <path id="Path_84" d="M31.6 24.333L52.61 3.324l8.379 8.376L39.98 32.711zm.016 25.109l33.578-33.58 8.378 8.378-33.579 33.581zm46.137-21L44.174 62.025l8.378 8.38 33.584-33.581zm-58.7 8.438l8.378-8.38 8.378 8.378-8.378 8.378z" class="cls-16" transform="translate(1.593 17.117)"/>
                </g>
                <path id="Path_2660" d="M1354.6 2037.019v160.053l70.411 40.651 69.953-40.653v-160.051z" class="cls-17" transform="translate(-1313.174 -2037.019)"/>
            </g>
            <path id="Path_2628" d="M1500.862 1739.708v-330.716h-226.193v330.255c-2.422 18.508 8.615 37.517 33.14 51.677 44.455 25.666 116.281 25.666 160.447 0 24.159-14.041 34.996-32.852 32.606-51.216z" transform="translate(-927.161 -1408.992)" style="mix-blend-mode:overlay;isolation:isolate" fill="url(#linear-gradient-20)"/>
            <g id="logo" transform="translate(364.367 137.675)">
                <path id="Path_306" fill="url(#linear-gradient-21)" d="M150.626 73.986L127.34 33.657H24.706A25.157 25.157 0 0 1 .745 15.518a34.768 34.768 0 0 0 4.638 18.139l6.6 11.434 25.108 43.482a31.81 31.81 0 0 0 27.549 15.905h63.41a34.773 34.773 0 0 0 19.55-6.026c.121-.203 8.524-14.942 3.026-24.466z" transform="translate(-.737 72.095)"/>
                <path id="Path_307" fill="url(#linear-gradient-22)" d="M107.932 68.993L77.088 15.528a34.768 34.768 0 0 0-11.33-11.873c-.69-.2-18.862-5.44-25.232 5.6l-24.42 42.33 30.135 52.238 23.287 40.357c5.5 9.532-2.9 24.283-3.022 24.488a34.776 34.776 0 0 0 10.583-11.383l4.62-8.008 26.224-45.457a34.85 34.85 0 0 0-.001-34.827z" transform="translate(79.777 1.882)"/>
                <path id="Path_308" fill="url(#linear-gradient-23)" d="M128.043 1.581H66.355a34.8 34.8 0 0 0-30.135 17.4L5.376 72.4A34.761 34.761 0 0 0 .738 89.057c1.548 12.783 19.52 18.139 19.52 18.139h46.806L97.2 55l24.42-42.3c6.367-11.027 24.542-5.794 25.232-5.591a34.767 34.767 0 0 0-18.808-5.533z" transform="translate(-.73 -1.581)"/>
            </g>
        </g>
    </g>
</svg>
