<svg xmlns="http://www.w3.org/2000/svg" width="110" height="70" viewBox="0 0 110 70">
    <defs>
        <style>
            .cls-3{fill:#fff;fill-rule:evenodd}
        </style>
    </defs>
    <g id="busd-usdt" transform="translate(.775 -3.82)">
        <path id="bg" fill="none" d="M0 0H110V70H0z" transform="translate(-.775 3.82)"/>
        <g id="USDT" transform="translate(43.224 6.82)">
            <circle id="Ellipse_5" cx="32" cy="32" r="32" fill="#50af95"/>
            <path id="Path_372" d="M25.429 37.808c-.207.016-1.275.08-3.659.08-1.9 0-3.242-.057-3.714-.08-7.324-.322-12.8-1.6-12.8-3.125s5.469-2.8 12.8-3.128v4.983c.479.035 1.851.115 3.747.115 2.275 0 3.414-.095 3.619-.114v-4.98c7.311.326 12.767 1.6 12.767 3.125s-5.455 2.8-12.767 3.123zm0-6.765v-4.458h10.2v-6.8H7.853v6.8h10.2v4.457c-8.29.381-14.528 2.023-14.528 3.991s6.235 3.609 14.528 3.992v14.287h7.373V39.02c8.273-.381 14.5-2.021 14.5-3.988s-6.22-3.607-14.5-3.99zm0 .001z" class="cls-3" transform="translate(10.274 -4.55)"/>
        </g>
        <g id="BUSD" transform="translate(1.225 6.82)">
            <circle id="Ellipse_5-2" cx="32" cy="32" r="32" fill="#f0b90b"/>
            <path id="Path_84" d="M26.456 15.719l12.4-12.4 4.943 4.943-12.4 12.4zm.009 14.814l19.81-19.812 4.943 4.943-19.81 19.812zm27.22-12.39L33.874 37.957l4.943 4.943 19.814-19.812zm-34.632 4.978L24 18.178l4.943 4.943L24 28.064z" class="cls-3" transform="translate(-6.768 9.661)"/>
        </g>
    </g>
</svg>
