<svg id="a3285e36-1174-45c2-a6f6-7544cf1d2799" xmlns="http://www.w3.org/2000/svg" width="32" height="32" viewBox="0 0 32 32"><defs><style>.cls-1{fill:#f0b90b;}.cls-2{fill:#fff;}.cls-3{fill:#3ab2e6;}.cls-4{fill:#d6d6d6;}.cls-5{fill:#eaeaea;}</style></defs><circle class="cls-1" cx="22.0958" cy="16" r="9.1796"/><path class="cls-2" d="M18.6724,16,17.268,17.4142,15.8537,16l1.4143-1.4142Zm3.4234-3.4231,2.4187,2.4185,1.4142-1.4142L23.51,11.1721,22.0958,9.7579l-1.4142,1.4142-2.4091,2.4091,1.4142,1.4142Zm4.8279,2.0092L25.5192,16l1.4142,1.4142L28.3379,16Zm-4.8279,4.8376L19.677,17.0049l-1.4045,1.4142,2.4189,2.4188,1.4044,1.4045L23.51,20.8282l2.4188-2.4188-1.4143-1.4048Zm0-2.0092L23.51,16l-1.4142-1.4142L20.6816,16Z"/><circle id="Ellipse_20" data-name="Ellipse 20" class="cls-3" cx="9.9042" cy="16" r="9.1796"/><path class="cls-2" d="M12.98,19.4418h0l-1.3988-2.4226H5.4158a1.8906,1.8906,0,0,1-1.4393-1.09,2.088,2.088,0,0,0,.2786,1.09l.3965.6869L6.16,20.318a1.9108,1.9108,0,0,0,1.6548.9555h3.809a2.09,2.09,0,0,0,1.1746-.362C12.8052,20.8993,13.31,20.0139,12.98,19.4418Z"/><path class="cls-4" d="M15.2866,14.929,13.4338,11.72a2.0871,2.0871,0,0,0-.6806-.7126c-.0415-.0122-1.133-.3265-1.5157.3359h0L9.7706,13.8839l1.81,3.1354L12.98,19.4418h0c.33.5721-.1745,1.4575-.1815,1.47a2.0884,2.0884,0,0,0,.6357-.6833l.2775-.4806,1.5753-2.7284A2.09,2.09,0,0,0,15.2866,14.929Z"/><path class="cls-5" d="M11.6236,10.6748H7.918a2.09,2.09,0,0,0-1.81,1.0451L4.2551,14.929A2.0873,2.0873,0,0,0,3.9765,15.93c.093.7679,1.1725,1.09,1.1725,1.09H7.9607l1.81-3.1354,1.4668-2.5407c.3825-.6624,1.4742-.3481,1.5157-.3358A2.0881,2.0881,0,0,0,11.6236,10.6748Z"/></svg>