<svg xmlns="http://www.w3.org/2000/svg" id="certik-icon" width="110" viewBox="0 0 145.362 34.682">
    <path id="Path_2981" d="M29.9 3.408l.182 1.1a20.7 20.7 0 0 1 .2 3.1 28.593 28.593 0 0 1-.823 6.8 25.48 25.48 0 0 1-3.792 8.445 26.307 26.307 0 0 1-9.308 8.154l-.527.284-.527-.284A26.319 26.319 0 0 1 6 22.854a25.485 25.485 0 0 1-3.79-8.445 28.608 28.608 0 0 1-.823-6.8 20.722 20.722 0 0 1 .2-3.1l.183-1.1A.692.692 0 1 0 .4 3.183L.22 4.287A21.975 21.975 0 0 0 0 7.612a29.988 29.988 0 0 0 .863 7.132 26.87 26.87 0 0 0 4 8.9 27.675 27.675 0 0 0 9.791 8.582l.856.461a.69.69 0 0 0 .656 0l.855-.461a27.762 27.762 0 0 0 9.791-8.582 26.869 26.869 0 0 0 4-8.9 29.988 29.988 0 0 0 .863-7.132 21.992 21.992 0 0 0-.219-3.325l-.183-1.1a.692.692 0 1 0-1.366.226z" fill="#808285" fill-rule="evenodd" transform="translate(0 1.908)"/>
    <path id="Path_2982" d="M3.582 4.564l10.287-3.142 10.517 3.21a.695.695 0 0 0 .4-1.33L14.071.03a.689.689 0 0 0-.4 0l-10.49 3.2a.695.695 0 1 0 .4 1.33z" fill="#808285" fill-rule="evenodd" transform="translate(1.969)"/>
    <path id="Path_2983" d="M.306 3.613L15.053 32.4a.691.691 0 0 0 1.226.011l8.993-16.82.013-.027 5.757-11.97a.693.693 0 0 0-1.248-.6l-5.747 11.953-8.357 15.642L1.537 2.98a.692.692 0 1 0-1.232.631z" fill="#808285" fill-rule="evenodd" transform="translate(.166 1.906)"/>
    <path id="Path_2984" d="M4.636 13.715h16.4a.692.692 0 1 0 0-1.384h-16.4a.692.692 0 0 0 0 1.384zm45.743-5.971H39.71a.7.7 0 0 0-.7.7V17a.7.7 0 0 0 .7.7h10.669v1.45H39.71a2.131 2.131 0 0 1-2.141-2.141V8.446a2.131 2.131 0 0 1 2.141-2.141h10.669zM70.412 6.3v1.449H60.137v4.239H68.4v1.462h-8.26v4.25h10.271v1.451H58.686V6.3z" fill="#808285" fill-rule="evenodd" transform="translate(2.895 4.623)"/>
    <path id="Path_2985" fill="#808285" d="M59.917 8.449v3.764a2.132 2.132 0 0 1-2.141 2.141h-1.962l4.031 4.781h-1.909l-4.014-4.781h-4.714a6.8 6.8 0 0 1-.7-.071v4.852h-1.447V6.308h10.7a2.133 2.133 0 0 1 2.141 2.141zm-10.7 4.442h8.563a.67.67 0 0 0 .678-.678V8.449a.688.688 0 0 0-.2-.491.643.643 0 0 0-.484-.205h-8.563a.7.7 0 0 0-.7.7v3.764a.641.641 0 0 0 .205.484.682.682 0 0 0 .492.195z" transform="translate(34.548 4.631)"/>
    <path id="Path_2986" d="M58.9 6.3h12.84v1.449h-5.683v11.4h-1.45v-11.4H58.9zm20.62 12.843V6.3h1.45v12.843zM100.25 6.3h1.855l-5.369 6.42 5.388 6.422h-1.874l-4.781-5.691H91.33v5.691h-1.46V6.3h1.463v5.69h4.139z" fill="#808285" fill-rule="evenodd" transform="translate(43.238 4.623)"/>
</svg>
