<svg xmlns="http://www.w3.org/2000/svg" width="32" height="32" viewBox="0 0 32 32">
    <g>
        <path fill="none" d="M0 0H32V32H0z" transform="translate(-810 -2182) translate(810 2182)"/>
        <path fill="#10b981" d="M16.311 3.375a12.936 12.936 0 1 0 12.937 12.936A12.934 12.934 0 0 0 16.311 3.375zm6.624 9.36l-8.315 8.353h-.006a1.123 1.123 0 0 1-.721.342 1.089 1.089 0 0 1-.728-.355l-3.484-3.483a.248.248 0 0 1 0-.355l1.107-1.107a.24.24 0 0 1 .348 0l2.764 2.762 7.588-7.644a.246.246 0 0 1 .174-.075.226.226 0 0 1 .174.075l1.088 1.126a.245.245 0 0 1 .011.361z" transform="translate(-810 -2182) translate(809.625 2181.625)"/>
    </g>
</svg>
