<svg xmlns="http://www.w3.org/2000/svg" width="110" height="70" viewBox="0 0 110 70">
    <g>
        <path fill="none" d="M0 0H110V70H0z" transform="translate(.775 -3.82) translate(-.775 3.82)"/>
        <g>
            <path fill="#f5ac37" d="M32.1.1a32 32 0 1 1-32 32 32 32 0 0 1 32-32z" transform="translate(.775 -3.82) translate(43.653 7.336) translate(-.526 -.612)"/>
            <path fill="#fefefd" d="M24.715 23.943h12.317c.263 0 .386 0 .408-.344a23.537 23.537 0 0 0 0-3.768c0-.245-.122-.344-.385-.344H12.54c-.3 0-.385.1-.385.385v3.606c0 .465 0 .465.486.465zm11.347-8.671a.4.4 0 0 0 0-.283 8.042 8.042 0 0 0-.734-1.276 10.342 10.342 0 0 0-1.5-1.885 4.96 4.96 0 0 0-.932-.911 14.562 14.562 0 0 0-6.078-3.079 15.123 15.123 0 0 0-3.443-.364H12.5c-.3 0-.344.122-.344.385v7.19c0 .3 0 .385.385.385h23.375s.2-.041.245-.163h-.1zm0 12.885a4.731 4.731 0 0 0-1.036 0H12.561c-.3 0-.405 0-.405.405v7.031c0 .324 0 .406.405.406h10.372a5.183 5.183 0 0 0 1.478-.1 15.45 15.45 0 0 0 4.4-.973 8.074 8.074 0 0 0 1.478-.689h.141a13.16 13.16 0 0 0 5.652-5.69s.142-.306-.017-.386zM8.084 39.643v-11.2c0-.264 0-.3-.324-.3h-4.4c-.245 0-.344 0-.344-.324v-3.855h4.7c.263 0 .367 0 .367-.344v-3.809c0-.245 0-.3-.324-.3h-4.4c-.245 0-.344 0-.344-.324v-3.568c0-.223 0-.283.326-.283H7.7c.3 0 .385 0 .385-.385V4.032c0-.324 0-.406.406-.406h15.191a23.079 23.079 0 0 1 3.282.367 19.8 19.8 0 0 1 6.341 2.35A17.889 17.889 0 0 1 36.87 9.1a19.517 19.517 0 0 1 2.167 2.694 16.224 16.224 0 0 1 1.582 3.1.53.53 0 0 0 .605.426h3.628c.465 0 .465 0 .486.446v3.323c0 .324-.122.406-.446.406h-2.8c-.283 0-.367 0-.344.364a20.767 20.767 0 0 1 0 3.706c0 .344 0 .385.386.385h3.2c.141.182 0 .365 0 .548a4.1 4.1 0 0 1 0 .708v2.452c0 .344-.1.448-.408.448H41.1a.507.507 0 0 0-.588.385 16.2 16.2 0 0 1-4.255 6.2 24.333 24.333 0 0 1-2.168 1.741c-.811.467-1.6.953-2.432 1.337a21.878 21.878 0 0 1-4.781 1.518 24.916 24.916 0 0 1-4.741.385H8.077v-.02z" transform="translate(.775 -3.82) translate(43.653 7.336) translate(7.552 9.858)"/>
        </g>
        <g transform="translate(.775 -3.82)">
            <circle cx="32" cy="32" r="32" fill="#3ab2e6" transform="translate(1.225 6.821)"/>
            <g fill="#fff">
                <path d="M35.257 28.132L30.4 19.716H8.978a6.568 6.568 0 0 1-5-3.787 7.254 7.254 0 0 0 .968 3.787L6.323 22.1l5.24 9.074a6.638 6.638 0 0 0 5.749 3.32h13.234a7.261 7.261 0 0 0 4.081-1.258c.023-.036 1.773-3.116.63-5.104z" transform="translate(1.204 .609) translate(8.044 22.536)"/>
                <path d="M28.934 24.842L22.5 13.694a7.251 7.251 0 0 0-2.365-2.476c-.144-.042-3.936-1.134-5.266 1.167l-5.1 8.826 6.29 10.889 4.861 8.42c1.146 1.988-.606 5.064-.631 5.107a7.255 7.255 0 0 0 2.211-2.374l.964-1.67 5.471-9.483a7.261 7.261 0 0 0 0-7.263z" opacity="0.6" transform="translate(1.204 .609) translate(22.381 10.148)"/>
                <path d="M30.544 10.675H17.67a7.261 7.261 0 0 0-6.288 3.631L4.944 25.454a7.252 7.252 0 0 0-.968 3.478C4.3 31.6 8.05 32.719 8.05 32.719h9.768l6.288-10.893L29.2 13c1.329-2.3 5.122-1.209 5.266-1.167a7.254 7.254 0 0 0-3.922-1.158z" opacity="0.8" transform="translate(1.204 .609) translate(8.046 9.536)"/>
            </g>
        </g>
    </g>
</svg>
