<svg xmlns="http://www.w3.org/2000/svg" width="110" height="70" viewBox="0 0 110 70">
    <g>
        <path fill="none" d="M0 0H110V70H0z" transform="translate(.775 -3.82) translate(-.775 3.82)"/>
        <g transform="translate(.775 -3.82) translate(43.224 6.82)">
            <circle cx="32" cy="32" r="32" fill="#50af95"/>
            <path fill="#fff" fill-rule="evenodd" d="M25.429 37.808c-.207.016-1.275.08-3.659.08-1.9 0-3.242-.057-3.714-.08-7.324-.322-12.8-1.6-12.8-3.125s5.469-2.8 12.8-3.128v4.983c.479.035 1.851.115 3.747.115 2.275 0 3.414-.095 3.619-.114v-4.98c7.311.326 12.767 1.6 12.767 3.125s-5.455 2.8-12.767 3.123zm0-6.765v-4.458h10.2v-6.8H7.853v6.8h10.2v4.457c-8.29.381-14.528 2.023-14.528 3.991s6.235 3.609 14.528 3.992v14.287h7.373V39.02c8.273-.381 14.5-2.021 14.5-3.988s-6.22-3.607-14.5-3.99zm0 .001z" transform="translate(10.274 -4.55)"/>
        </g>
        <g transform="translate(.775 -3.82) translate(.5 -.001)">
            <circle cx="32" cy="32" r="32" fill="#3ab2e6" transform="translate(1.225 6.821)"/>
            <g fill="#fff">
                <path d="M35.257 28.132L30.4 19.716H8.978a6.568 6.568 0 0 1-5-3.787 7.254 7.254 0 0 0 .968 3.787L6.323 22.1l5.24 9.074a6.638 6.638 0 0 0 5.749 3.32h13.234a7.261 7.261 0 0 0 4.081-1.258c.023-.036 1.773-3.116.63-5.104z" transform="translate(1.204 .609) translate(8.044 22.536)"/>
                <path d="M28.934 24.842L22.5 13.694a7.251 7.251 0 0 0-2.365-2.476c-.144-.042-3.936-1.134-5.266 1.167l-5.1 8.826 6.29 10.889 4.861 8.42c1.146 1.988-.606 5.064-.631 5.107a7.255 7.255 0 0 0 2.211-2.374l.964-1.67 5.471-9.483a7.261 7.261 0 0 0 0-7.263z" opacity="0.6" transform="translate(1.204 .609) translate(22.381 10.148)"/>
                <path d="M30.544 10.675H17.67a7.261 7.261 0 0 0-6.288 3.631L4.944 25.454a7.252 7.252 0 0 0-.968 3.478C4.3 31.6 8.05 32.719 8.05 32.719h9.768l6.288-10.893L29.2 13c1.329-2.3 5.122-1.209 5.266-1.167a7.254 7.254 0 0 0-3.922-1.158z" opacity="0.8" transform="translate(1.204 .609) translate(8.046 9.536)"/>
            </g>
        </g>
    </g>
</svg>
