<svg xmlns="http://www.w3.org/2000/svg" width="110" height="70" viewBox="0 0 110 70">
    <defs>
        <style>
            .cls-3{fill:#fff}
        </style>
    </defs>
    <g id="dop-dolly" transform="translate(.775 -3.82)">
        <path id="bg" fill="none" d="M0 0H110V70H0z" transform="translate(-.775 3.82)"/>
        <g id="DOLLY" transform="translate(43.635 7.23)">
            <circle id="Ellipse_71" cx="32" cy="32" r="32" fill="#5d95c7" transform="translate(-.41 -.41)"/>
            <g id="Group_104">
                <path id="Path_2869" d="M85.948 77.272c-.821-4.719-2.371-6.566-3.525-9.034a6.358 6.358 0 0 0 3.315.027c.869-.281-.618-1.944-1.9-2.371a5.912 5.912 0 0 0-2.33-.226c-.112-.444-.213-.913-.292-1.434-.3-1.979.124-4.191 2.385-4.572 1.4-.237 2.732 1.3 3.962 1.815a8.408 8.408 0 0 0 8.208-.659c.8-.572 1.639-1.336 2.706-1.156 2.261.381 2.687 2.593 2.385 4.572-.081.526-.182 1-.3 1.449a6.141 6.141 0 0 0-2.543.211c-1.286.426-2.773 2.09-1.9 2.371a5.967 5.967 0 0 0 3.584-.143c-1.159 2.526-2.744 4.357-3.578 9.149a28.733 28.733 0 0 1-.8 3.546 3.233 3.233 0 0 1-2.81.141c-.9-.47-.626-1.565-.024-2.163.356-.353.868-.55 1.221-.906a4.893 4.893 0 0 0 .627-1.06c-.4-.12-.97-.471-1.173-.322a3.25 3.25 0 0 1-4.253-.013c-.2-.144-.769.224-1.167.355a3.628 3.628 0 0 0 .52 1.013c.552.544 1.33.911 1.733 1.534a1.733 1.733 0 0 1-.175 1.6 5.033 5.033 0 0 1-2.965.112 26.389 26.389 0 0 1-.911-3.836z" class="cls-3" transform="translate(-60.445 -44.371)"/>
                <path id="Path_2870" d="M108.622 148.195c0 .008-.01.013-.014.02a3.217 3.217 0 0 1-2.915-1.832c.781-.1 2.007-.872 3.661-.89 1.08-.012 2.417.748 3.695.83a3.138 3.138 0 0 1-2.746 1.868z" class="cls-3" transform="translate(-78.764 -108.393)"/>
                <path id="Path_2871" fill="#003865" d="M92.314 54.67c-2.078.446-6.6-2.549-7.671-5.271-1.218-3.093-2.97-4.9-4.615-7.045a.972.972 0 0 1 .251-1.54 8.219 8.219 0 0 0 3.61-7.5c-1.514-.9-4.076-.212-6.029.566-.2-2.3-4-2.693-4-2.693-4.159-4.456-8.009-2.929-8.009-2.929a8.848 8.848 0 0 0-7.542 1.169c-.042.022-.078.056-.118.081-4.723.186-6.545 2.853-7.152 4.14a2.536 2.536 0 0 0-.4.776 11.125 11.125 0 0 0-6.672-.656c-1.142 5.711 5.828 8.545 5.828 8.545-2.517 9.489.8 9.8-.3 15.307-.631 3.167.848 6.5.958 8.773.186 3.827-.78 10.215-.6 14.438a31.8 31.8 0 0 0 46.376-26.723 28.458 28.458 0 0 0-3.915.562zM44.915 34.7a18.915 18.915 0 0 1 5.031 3.9c1.69 2.137-3.881 3.037-5.031-3.9zm19.264 25.8l-1.681.005c0 .008-.01.013-.014.02a3.217 3.217 0 0 1-2.916-1.825c.781-.1 2.007-.871 3.661-.89 1.08-.012 2.417.748 3.695.83a3.138 3.138 0 0 1-2.745 1.86zm8.874-19.932c-.081.526-.182 1-.3 1.449a6.141 6.141 0 0 0-2.543.211c-1.286.426-2.773 2.09-1.9 2.371a5.967 5.967 0 0 0 3.584-.143c-1.159 2.526-2.744 4.357-3.578 9.149a28.732 28.732 0 0 1-.8 3.546 3.233 3.233 0 0 1-2.81.141c-.9-.47-.626-1.565-.024-2.163.356-.353.868-.55 1.221-.906a4.894 4.894 0 0 0 .627-1.06c-.4-.12-.97-.471-1.173-.322a3.25 3.25 0 0 1-4.253-.013c-.2-.144-.769.224-1.167.355a3.628 3.628 0 0 0 .52 1.013c.552.544 1.33.911 1.733 1.534a1.733 1.733 0 0 1-.175 1.6 5.033 5.033 0 0 1-2.965.112 26.39 26.39 0 0 1-.9-3.841c-.821-4.719-2.371-6.566-3.525-9.034a6.358 6.358 0 0 0 3.315.027c.869-.281-.618-1.944-1.9-2.371A5.912 5.912 0 0 0 53.7 42c-.112-.444-.213-.913-.292-1.434-.3-1.979.124-4.191 2.385-4.572 1.4-.236 2.732 1.3 3.962 1.815a8.408 8.408 0 0 0 8.208-.659c.8-.572 1.639-1.336 2.706-1.156 2.259.386 2.686 2.598 2.383 4.577zm5.1-2.386a18.908 18.908 0 0 1 4.814-4.166c-.775 6.992-6.386 6.391-4.812 4.169z" transform="translate(-32.639 -20.707)"/>
            </g>
        </g>
        <g id="DOP">
            <circle id="Ellipse_20" cx="32" cy="32" r="32" fill="#3ab2e6" transform="translate(1.225 6.821)"/>
            <g id="icon" transform="translate(1.204 .609)">
                <path id="Path_360" d="M35.257 28.132L30.4 19.716H8.978a6.568 6.568 0 0 1-5-3.787 7.254 7.254 0 0 0 .968 3.787L6.323 22.1l5.24 9.074a6.638 6.638 0 0 0 5.749 3.32h13.234a7.261 7.261 0 0 0 4.081-1.258c.023-.036 1.773-3.116.63-5.104z" class="cls-3" transform="translate(8.044 22.536)"/>
                <path id="Path_361" fill="#fff" d="M28.934 24.842L22.5 13.694a7.251 7.251 0 0 0-2.365-2.476c-.144-.042-3.936-1.134-5.266 1.167l-5.1 8.826 6.29 10.889 4.861 8.42c1.146 1.988-.606 5.064-.631 5.107a7.255 7.255 0 0 0 2.211-2.374l.964-1.67 5.471-9.483a7.261 7.261 0 0 0 0-7.263z" opacity="0.6" transform="translate(22.381 10.148)"/>
                <path id="Path_362" fill="#fff" d="M30.544 10.675H17.67a7.261 7.261 0 0 0-6.288 3.631L4.944 25.454a7.252 7.252 0 0 0-.968 3.478C4.3 31.6 8.05 32.719 8.05 32.719h9.768l6.288-10.893L29.2 13c1.329-2.3 5.122-1.209 5.266-1.167a7.254 7.254 0 0 0-3.922-1.158z" opacity="0.8" transform="translate(8.046 9.536)"/>
            </g>
        </g>
    </g>
</svg>
