<svg xmlns="http://www.w3.org/2000/svg" width="130.52" viewBox="0 0 153.52 27.006">

    <g id="thaishield-icon" transform="translate(-84.308 -285.902)">
        <g id="Group_264" transform="translate(84.308 292.002)">
            <path id="Path_3004" d="M95.773 316.573q0 1.031.062 1.691h-.474a12.647 12.647 0 0 0-.413-2.361 1.932 1.932 0 0 0-.866-1.134 3.876 3.876 0 0 0-1.9-.361h-1.111v11.733a3.489 3.489 0 0 0 .165 1.258.928.928 0 0 0 .577.536 5.109 5.109 0 0 0 1.34.186v.413q-1.072-.062-3.031-.062-2.062 0-3.052.062v-.413a5.113 5.113 0 0 0 1.341-.186.929.929 0 0 0 .577-.536 3.49 3.49 0 0 0 .165-1.258v-11.734H88.04a3.874 3.874 0 0 0-1.9.361 1.933 1.933 0 0 0-.866 1.134 12.665 12.665 0 0 0-.413 2.361h-.474q.062-.66.062-1.691 0-1.175-.144-2.64 1.711.062 5.815.062 4.083 0 5.795-.062-.142 1.468-.142 2.641z" fill="#808285" transform="translate(-84.308 -313.83)"/>
            <path id="Path_3005" d="M156.176 314.51a.742.742 0 0 0-.464.474 3.732 3.732 0 0 0-.124 1.134v10.228a3.727 3.727 0 0 0 .124 1.134.741.741 0 0 0 .464.474 4.1 4.1 0 0 0 1.082.165v.413q-.866-.062-2.639-.062-1.67 0-2.619.062v-.413a4.1 4.1 0 0 0 1.083-.165.741.741 0 0 0 .464-.474 3.72 3.72 0 0 0 .124-1.134V321.4h-6.7v4.949a3.727 3.727 0 0 0 .124 1.134.741.741 0 0 0 .464.474 4.093 4.093 0 0 0 1.082.165v.413q-.948-.062-2.619-.062-1.774 0-2.64.062v-.413a4.093 4.093 0 0 0 1.083-.165.741.741 0 0 0 .464-.474 3.718 3.718 0 0 0 .124-1.134v-10.23a3.723 3.723 0 0 0-.124-1.134.742.742 0 0 0-.464-.474 4.112 4.112 0 0 0-1.083-.165v-.413q.866.062 2.64.062 1.649 0 2.619-.062v.413a4.111 4.111 0 0 0-1.082.165.742.742 0 0 0-.464.474 3.732 3.732 0 0 0-.124 1.134v4.867h6.7v-4.867a3.724 3.724 0 0 0-.124-1.134.742.742 0 0 0-.464-.474 4.114 4.114 0 0 0-1.083-.165v-.413q.949.062 2.619.062 1.773 0 2.639-.062v.413a4.114 4.114 0 0 0-1.082.164z" fill="#808285" transform="translate(-130.308 -313.83)"/>
            <path id="Path_3006" d="M222.609 327.757v.413q-.825-.062-2.206-.062-1.774 0-2.64.062v-.413a3.371 3.371 0 0 0 1.124-.2.568.568 0 0 0 .34-.567 2.841 2.841 0 0 0-.247-.969l-1.258-3.382h-4.991l-.845 2.186a5.39 5.39 0 0 0-.413 1.691 1.025 1.025 0 0 0 .443.928 2.621 2.621 0 0 0 1.351.309v.413q-1.175-.062-2.372-.062-.928 0-1.546.062v-.413q1.031-.247 1.629-1.794l4.846-12.5h.33l5.032 12.971q.496 1.286 1.423 1.327zm-5.052-5.526l-2.31-6.166-2.351 6.166z" fill="#808285" transform="translate(-181.677 -313.467)"/>
            <path id="Path_3007" d="M276.012 314.345a4.111 4.111 0 0 0-1.083.165.741.741 0 0 0-.464.474 3.722 3.722 0 0 0-.124 1.134v10.228a3.718 3.718 0 0 0 .124 1.134.741.741 0 0 0 .464.474 4.093 4.093 0 0 0 1.083.165v.413q-.949-.062-2.619-.062-1.774 0-2.64.062v-.413a4.093 4.093 0 0 0 1.082-.165.742.742 0 0 0 .464-.474 3.735 3.735 0 0 0 .123-1.134v-10.227a3.739 3.739 0 0 0-.123-1.134.742.742 0 0 0-.464-.474 4.111 4.111 0 0 0-1.082-.165v-.413q.866.062 2.64.062 1.65 0 2.619-.062z" fill="#808285" transform="translate(-229.492 -313.83)"/>
        </g>
        <path id="Path_3008" d="M463.075 312.731a5.33 5.33 0 0 1 1.083.567 1.485 1.485 0 0 0 .7.289.319.319 0 0 0 .289-.217 2.474 2.474 0 0 0 .165-.691h.474q-.1 1.2-.1 4.207h-.474a5.34 5.34 0 0 0-.959-2.815 2.814 2.814 0 0 0-2.423-1.144 2.517 2.517 0 0 0-1.815.67 2.275 2.275 0 0 0-.7 1.722 2.514 2.514 0 0 0 .361 1.361 3.6 3.6 0 0 0 .918.99q.557.413 1.588 1.052l.6.371a20.693 20.693 0 0 1 2.052 1.412 5.028 5.028 0 0 1 1.207 1.392 3.6 3.6 0 0 1 .453 1.835 3.545 3.545 0 0 1-1.237 2.9 4.762 4.762 0 0 1-3.135 1.021 5.305 5.305 0 0 1-1.619-.206 5.77 5.77 0 0 1-1.206-.557 1.5 1.5 0 0 0-.7-.289.318.318 0 0 0-.289.217 2.449 2.449 0 0 0-.165.691h-.474q.082-1.134.083-4.949h.474a6.737 6.737 0 0 0 1.031 3.382 3.068 3.068 0 0 0 2.722 1.3 2.768 2.768 0 0 0 1.9-.691 2.59 2.59 0 0 0 .784-2.052 2.722 2.722 0 0 0-.773-1.959 12.361 12.361 0 0 0-2.444-1.815 22.833 22.833 0 0 1-1.969-1.32 4.741 4.741 0 0 1-1.227-1.392 3.723 3.723 0 0 1-.474-1.907 3.238 3.238 0 0 1 1.114-2.65 4.828 4.828 0 0 1 4.2-.722z" fill="#808285" transform="translate(-290.728 -20.739)"/>
        <path id="Path_3009" d="M518.816 314.277a.741.741 0 0 0-.464.474 3.722 3.722 0 0 0-.124 1.134v10.228a3.72 3.72 0 0 0 .124 1.134.741.741 0 0 0 .464.474 4.1 4.1 0 0 0 1.083.165v.413q-.866-.062-2.64-.062-1.67 0-2.619.062v-.413a4.1 4.1 0 0 0 1.083-.165.741.741 0 0 0 .464-.474 3.72 3.72 0 0 0 .124-1.134v-4.949h-6.7v4.949a3.722 3.722 0 0 0 .124 1.134.742.742 0 0 0 .464.474 4.1 4.1 0 0 0 1.083.165v.413q-.949-.062-2.619-.062-1.774 0-2.639.062v-.413a4.1 4.1 0 0 0 1.082-.165.742.742 0 0 0 .464-.474 3.73 3.73 0 0 0 .124-1.134v-10.227a3.733 3.733 0 0 0-.124-1.134.742.742 0 0 0-.464-.474 4.116 4.116 0 0 0-1.082-.165v-.413q.866.062 2.639.062 1.65 0 2.619-.062v.413a4.115 4.115 0 0 0-1.083.165.742.742 0 0 0-.464.474 3.724 3.724 0 0 0-.124 1.134v4.867h6.7v-4.867a3.722 3.722 0 0 0-.124-1.134.741.741 0 0 0-.464-.474 4.112 4.112 0 0 0-1.083-.165v-.413q.948.062 2.619.062 1.773 0 2.64-.062v.413a4.113 4.113 0 0 0-1.083.164z" fill="#808285" transform="translate(-328.384 -21.646)"/>
        <path id="Path_3010" d="M581.812 314.112a4.116 4.116 0 0 0-1.083.165.742.742 0 0 0-.464.474 3.728 3.728 0 0 0-.124 1.134v10.228a3.725 3.725 0 0 0 .124 1.134.742.742 0 0 0 .464.474 4.1 4.1 0 0 0 1.083.165v.413q-.949-.062-2.619-.062-1.774 0-2.64.062v-.413a4.1 4.1 0 0 0 1.083-.165.741.741 0 0 0 .464-.474 3.723 3.723 0 0 0 .124-1.134v-10.227a3.725 3.725 0 0 0-.124-1.134.741.741 0 0 0-.464-.474 4.117 4.117 0 0 0-1.083-.165v-.413q.866.062 2.64.062 1.649 0 2.619-.062z" fill="#808285" transform="translate(-383.307 -21.646)"/>
        <path id="Path_3011" d="M618.843 328.3q-1.4-.062-4.722-.062-3.959 0-5.98.062v-.413a4.1 4.1 0 0 0 1.083-.165.741.741 0 0 0 .464-.474 3.722 3.722 0 0 0 .124-1.134v-10.228a3.725 3.725 0 0 0-.124-1.134.741.741 0 0 0-.464-.474 4.116 4.116 0 0 0-1.083-.165v-.413q2.021.062 5.98.062 3.031 0 4.31-.062a23.335 23.335 0 0 0-.144 2.433 10.353 10.353 0 0 0 .062 1.278h-.474a9.632 9.632 0 0 0-.371-1.99 1.665 1.665 0 0 0-.763-.949 3.452 3.452 0 0 0-1.629-.3H613.4a3.735 3.735 0 0 0-1.083.114.71.71 0 0 0-.464.464 3.715 3.715 0 0 0-.124 1.134v4.867h1.361a1.648 1.648 0 0 0 1.114-.34 1.666 1.666 0 0 0 .526-.8 7.439 7.439 0 0 0 .216-1.165l.062-.412h.474q-.062.866-.062 1.938v.99q0 1.052.123 2.928h-.474q-.021-.144-.124-1a2.03 2.03 0 0 0-.567-1.289 1.816 1.816 0 0 0-1.289-.433h-1.361v4.949a3.713 3.713 0 0 0 .124 1.134.708.708 0 0 0 .464.464 3.729 3.729 0 0 0 1.083.113h1.501a4.421 4.421 0 0 0 1.949-.34 2.044 2.044 0 0 0 .979-1.093 8.266 8.266 0 0 0 .454-2.217h.474a14.014 14.014 0 0 0-.062 1.485q.006 1.173.149 2.637z" fill="#808285" transform="translate(-407.904 -21.646)"/>
        <path id="Path_3012" d="M670.143 314.112a4.116 4.116 0 0 0-1.083.165.742.742 0 0 0-.464.474 3.724 3.724 0 0 0-.124 1.134v10.228a3.721 3.721 0 0 0 .124 1.134.709.709 0 0 0 .464.464 3.729 3.729 0 0 0 1.083.113h1.505a4.2 4.2 0 0 0 1.949-.361 2.131 2.131 0 0 0 .979-1.165 9.245 9.245 0 0 0 .454-2.33h.474q-.062.639-.062 1.691 0 1.175.145 2.639-1.4-.062-4.722-.062-3.959 0-5.98.062v-.413a4.1 4.1 0 0 0 1.083-.165.741.741 0 0 0 .464-.474 3.723 3.723 0 0 0 .124-1.134v-10.226a3.725 3.725 0 0 0-.124-1.134.741.741 0 0 0-.464-.474 4.116 4.116 0 0 0-1.083-.165v-.413q.866.062 2.64.062 1.649 0 2.619-.062z" fill="#808285" transform="translate(-452.09 -21.646)"/>
        <path id="Path_3013" d="M730.767 315.525a7.218 7.218 0 0 1 1.815 5.31 8.363 8.363 0 0 1-.887 3.939 6.18 6.18 0 0 1-2.567 2.609 8.253 8.253 0 0 1-4.011.918l-1.2-.02q-1.155-.042-1.691-.041-1.691 0-2.557.062v-.413a4.1 4.1 0 0 0 1.083-.165.741.741 0 0 0 .464-.474 3.723 3.723 0 0 0 .124-1.134v-10.23a3.725 3.725 0 0 0-.124-1.134.741.741 0 0 0-.464-.474 4.115 4.115 0 0 0-1.083-.165v-.413q.722.062 2 .062l1.753-.021q1.4-.041 1.877-.041 3.654 0 5.468 1.825zm-6.939-1.309a.815.815 0 0 0-.443.515 3.752 3.752 0 0 0-.124 1.113v10.311a3.752 3.752 0 0 0 .124 1.114.814.814 0 0 0 .443.516 2.506 2.506 0 0 0 .979.144 6.418 6.418 0 0 0 3.444-.794 4.2 4.2 0 0 0 1.763-2.32 12.623 12.623 0 0 0 .505-3.9 11.264 11.264 0 0 0-.557-3.867 4.215 4.215 0 0 0-1.8-2.237 6.576 6.576 0 0 0-3.371-.742 2.441 2.441 0 0 0-.963.147z" fill="#808285" transform="translate(-494.754 -21.646)"/>
        <path id="Path_3014" d="M329.576 285.9a13.5 13.5 0 1 0 13.5 13.5 13.5 13.5 0 0 0-13.5-13.5zm0 25.839a12.335 12.335 0 1 1 12.335-12.335 12.349 12.349 0 0 1-12.335 12.337z" fill="#808285" transform="translate(-180.474)"/>
        <g id="Group_265" transform="translate(137.21 287.513)">
            <path id="Path_3015" d="M414.494 347.07l-.017.016.017.016z" fill="#808285" transform="translate(-394.31 -335.144)"/>
            <path id="Path_3016" d="M376.794 309.452l.016.017.016-.017z" fill="#808285" transform="translate(-364.966 -305.851)"/>
            <path id="Path_3017" d="M368.635 336.183a2.438 2.438 0 1 0 2.438 2.438 2.438 2.438 0 0 0-2.438-2.438zm0 4.1a1.663 1.663 0 1 1 1.663-1.663 1.663 1.663 0 0 1-1.663 1.664z" fill="#808285" transform="translate(-356.715 -326.666)"/>
            <path id="Path_3018" d="M335.243 293.18a11.893 11.893 0 1 0 11.893 11.893 11.906 11.906 0 0 0-11.893-11.893zm5.672 5.944c.123 0 .223.007.283.012a2.246 2.246 0 0 1-.171 1.708 1.063 1.063 0 0 0-.37-.1 1.809 1.809 0 0 0 .1-1.091l-.019-.084h-.086a2.977 2.977 0 0 0-.98.239c0-.139 0-.247-.007-.3a1.834 1.834 0 0 1 1.25-.384zm-1.4.913a2.818 2.818 0 0 1 1.093-.3 1.729 1.729 0 0 1-.156 1.166 3.411 3.411 0 0 0-1.33.409 2.4 2.4 0 0 0 .389-1.275zm-7.345-2.333a1.023 1.023 0 0 1 .4 1.059.8.8 0 0 0 .021-1.059c-.418-.662 2.626-3.143 2.626-3.143s3.11 2.482 2.692 3.143a.8.8 0 0 0 .021 1.059 1.023 1.023 0 0 1 .4-1.059 3.191 3.191 0 0 1-.4 4.3 3.917 3.917 0 0 0-.511-.287 2.019 2.019 0 0 0-.208-2.628c-1.127-1.331-1.895-2.167-2.01-2.292-.115.125-.883.961-2.01 2.292a2.014 2.014 0 0 0-.184 2.658c-.145.076-.29.161-.436.257a3.191 3.191 0 0 1-.405-4.304zm3.04 14.96h-.026l.013-.014c-.095-.1-.726-.789-1.652-1.884a1.655 1.655 0 0 1-.151-2.185c.112.047.223.089.333.126h-.011a1.226 1.226 0 0 0-.13 1.117 22.355 22.355 0 0 0 1.629 2.007 24.177 24.177 0 0 0 1.571-2.007 1.2 1.2 0 0 0-.122-1.1c.124-.038.241-.079.35-.121a1.657 1.657 0 0 1-.165 2.167c-.926 1.094-1.557 1.781-1.652 1.884zm-1.212-3.863h.044a4.729 4.729 0 0 0 2.332 0 .99.99 0 0 1 .105.9 19.6 19.6 0 0 1-1.27 1.623 18.12 18.12 0 0 1-1.317-1.623.991.991 0 0 1 .102-.901zm1.276-.219a3.448 3.448 0 1 1 3.448-3.448 3.448 3.448 0 0 1-3.452 3.449zm-.09-11.1h.026l-.013.014c.095.1.726.79 1.652 1.884a1.657 1.657 0 0 1 .165 2.167c-.108-.042-.226-.083-.35-.121a1.2 1.2 0 0 0 .122-1.1 24.215 24.215 0 0 0-1.571-2.007 22.387 22.387 0 0 0-1.629 2.007 1.225 1.225 0 0 0 .13 1.117h.011c-.11.037-.221.078-.333.125a1.654 1.654 0 0 1 .151-2.184c.926-1.094 1.557-1.781 1.652-1.884zm1.19 3.863a4.729 4.729 0 0 0-2.332 0h-.044a.991.991 0 0 1-.105-.9 18.093 18.093 0 0 1 1.317-1.623 19.565 19.565 0 0 1 1.27 1.623.99.99 0 0 1-.109.898zm-4.948-.036a3.413 3.413 0 0 0-1.33-.409 1.729 1.729 0 0 1-.156-1.166 2.817 2.817 0 0 1 1.093.3 2.4 2.4 0 0 0 .39 1.273zm-2.08-2.171c.06-.005.16-.012.283-.012a1.834 1.834 0 0 1 1.251.388c0 .058-.01.166-.008.3a2.976 2.976 0 0 0-.979-.239h-.086l-.019.084a1.806 1.806 0 0 0 .1 1.091 1.063 1.063 0 0 0-.37.1 2.247 2.247 0 0 1-.175-1.714zm-1.468 8.6c-.662.418-3.143-2.626-3.143-2.626s2.482-3.11 3.143-2.692a.8.8 0 0 0 1.059-.021 1.023 1.023 0 0 1-1.059-.4 3.191 3.191 0 0 1 4.3.4 3.916 3.916 0 0 0-.287.511 2.018 2.018 0 0 0-2.628.208c-1.331 1.126-2.167 1.895-2.292 2.01.125.115.961.883 2.292 2.01a2.014 2.014 0 0 0 2.658.184c.076.145.162.29.257.436a3.19 3.19 0 0 1-4.3.4 1.023 1.023 0 0 1 1.059-.4.8.8 0 0 0-1.063-.027zm3.639-1.454v.044a.99.99 0 0 1-.9.105 18.093 18.093 0 0 1-1.623-1.317 19.611 19.611 0 0 1 1.623-1.27.99.99 0 0 1 .9.105 4.729 4.729 0 0 0-.004 2.326zm-1.023-2.745a24.2 24.2 0 0 0-2.007 1.571 22.371 22.371 0 0 0 2.007 1.629 1.226 1.226 0 0 0 1.117-.13v-.011c.037.11.078.221.125.333a1.655 1.655 0 0 1-2.185-.151c-1.094-.926-1.781-1.557-1.884-1.652l-.014.013v-.026l.014.013c.1-.095.79-.726 1.884-1.652a1.657 1.657 0 0 1 2.167-.165c-.042.108-.083.226-.121.35a1.2 1.2 0 0 0-1.107-.128zm-.865 7.631c-.123 0-.223-.007-.283-.012a2.247 2.247 0 0 1 .171-1.709 1.061 1.061 0 0 0 .37.1 1.806 1.806 0 0 0-.1 1.091l.019.084h.086a2.964 2.964 0 0 0 .979-.239c0 .139 0 .247.008.305a1.834 1.834 0 0 1-1.253.374zm1.4-.913a2.818 2.818 0 0 1-1.093.3 1.729 1.729 0 0 1 .156-1.166 3.412 3.412 0 0 0 1.33-.409 2.4 2.4 0 0 0-.392 1.269zm7.29 2.19a1.023 1.023 0 0 1-.4-1.059.8.8 0 0 0-.021 1.059c.418.662-2.692 3.143-2.692 3.143s-3.044-2.482-2.626-3.143a.8.8 0 0 0-.021-1.059 1.023 1.023 0 0 1-.4 1.059 3.19 3.19 0 0 1 .4-4.3c.146.1.292.181.436.257a2.014 2.014 0 0 0 .184 2.658c1.126 1.331 1.895 2.167 2.01 2.292.115-.125.883-.961 2.01-2.292a2.019 2.019 0 0 0 .208-2.628 3.923 3.923 0 0 0 .511-.287 3.191 3.191 0 0 1 .402 4.294zm.8-3.46a3.411 3.411 0 0 0 1.33.409 1.729 1.729 0 0 1 .156 1.166 2.818 2.818 0 0 1-1.093-.3 2.4 2.4 0 0 0-.394-1.281zm2.08 2.171c-.06.005-.16.012-.283.012a1.834 1.834 0 0 1-1.251-.388c0-.058.009-.166.007-.305a2.965 2.965 0 0 0 .98.239h.086l.019-.084a1.809 1.809 0 0 0-.1-1.091 1.061 1.061 0 0 0 .37-.1 2.246 2.246 0 0 1 .173 1.711zm1.413-3.421a.8.8 0 0 0-1.059.021 1.023 1.023 0 0 1 1.059.4 3.19 3.19 0 0 1-4.3-.4c.1-.146.181-.292.257-.436a2.014 2.014 0 0 0 2.658-.184c1.331-1.126 2.167-1.895 2.292-2.01-.125-.115-.961-.883-2.292-2.01a2.018 2.018 0 0 0-2.628-.208 3.924 3.924 0 0 0-.287-.511 3.191 3.191 0 0 1 4.3-.4 1.023 1.023 0 0 1-1.059.4.8.8 0 0 0 1.059.021c.662-.418 3.143 2.692 3.143 2.692s-2.482 3.038-3.144 2.619zm-2.616-1A22.383 22.383 0 0 0 342 305.1a24.213 24.213 0 0 0-2.007-1.571 1.2 1.2 0 0 0-1.1.122c-.038-.124-.079-.241-.121-.35a1.657 1.657 0 0 1 2.167.165c1.094.926 1.781 1.557 1.884 1.652l.014-.013v.026l-.014-.013c-.1.095-.79.726-1.884 1.652a1.655 1.655 0 0 1-2.184.151c.047-.112.088-.223.125-.333v.011a1.226 1.226 0 0 0 1.115.134zm-1.023-2.787a.991.991 0 0 1 .9-.105 19.569 19.569 0 0 1 1.623 1.27 18.057 18.057 0 0 1-1.623 1.317.991.991 0 0 1-.9-.105v-.044a4.728 4.728 0 0 0-.001-2.337z" fill="#808285" transform="translate(-323.35 -293.18)"/>
            <path id="Path_3019" d="M376.825 384.324l-.016-.017-.016.017z" fill="#808285" transform="translate(-364.966 -364.14)"/>
            <path id="Path_3020" d="M339.622 347.1l.017-.016-.017-.016z" fill="#808285" transform="translate(-336.021 -335.144)"/>
        </g>
    </g>
</svg>
